<?xml version="1.0" standalone="no"?><!DOCTYPE svg PUBLIC "-//W3C//DTD SVG 1.1//EN" "http://www.w3.org/Graphics/SVG/1.1/DTD/svg11.dtd"><svg t="1722666338154" class="icon" viewBox="0 0 1024 1024" version="1.1" xmlns="http://www.w3.org/2000/svg" p-id="20362" width="32" height="32" xmlns:xlink="http://www.w3.org/1999/xlink"><path d="M935.393882 172.092235l-84.510117-84.570353c-34.032941-34.093176-93.665882-34.093176-127.819294 0l-545.551059 545.611294-103.725177 318.524236 316.114824-106.315294 545.430588-545.490824a90.352941 90.352941 0 0 0 0.060235-127.759059zM186.368 800.768l38.851765-119.205647 116.495059 116.555294-118.241883 39.755294-37.104941-37.104941z m75.956706-167.213176l330.87247-330.872471 127.156706 127.096471-330.932706 330.932705-127.09647-127.156705z m373.458823-373.519059l43.91153-43.91153 127.156706 127.096471-43.91153 43.911529-127.156706-127.09647z m257.024-2.770824l-43.369411 43.369412-127.156706-127.096471 43.369412-43.429647a30.840471 30.840471 0 0 1 42.586352 0l84.510118 84.570353a30.117647 30.117647 0 0 1 0.060235 42.586353z" fill="#767676" p-id="20363"></path></svg>